{
  "accessors": [
    {
      "bufferView": 0,
      "componentType": 5126,
      "count": 13201,
      "max": [
        34.63544845581055,
        43.749637603759766,
        15.2434720993042
      ],
      "min": [
        -34.576927185058594,
        -43.79109191894531,
        -15.342354774475098
      ],
      "name": "positions",
      "type": "VEC3"
    },
    {
      "bufferView": 1,
      "componentType": 5125,
      "count": 79194,
      "name": "pos_index",
      "type": "SCALAR"
    },
    {
      "bufferView": 2,
      "componentType": 5126,
      "count": 13201,
      "name": "normals",
      "type": "VEC3"
    }
  ],
  "asset": {
    "version": "2.0"
  },
  "bufferViews": [
    {
      "buffer": 0,
      "byteLength": 158412,
      "name": "positions",
      "target": 34962
    },
    {
      "buffer": 1,
      "byteLength": 316776,
      "name": "pos_index",
      "target": 34963
    },
    {
      "buffer": 2,
      "byteLength": 158412,
      "name": "normals",
      "target": 34962
    }
  ],
  "buffers": [
    {
      "byteLength": 158412,
      "name": "positions",
      "uri": "data:application/octet-stream;base64,"
    },
    {
      "byteLength": 316776,
      "name": "pos_index",
      "uri": "data:application/octet-stream;base64,"
    },
    {
      "byteLength": 158412,
      "name": "normals",
      "uri": "data:application/octet-stream;base64,"
    }
  ],
  "extensionsUsed": [
    "KHR_materials_transmission"
  ],
  "meshes": [
    {
      "name": "sparkle",
      "primitives": [
        {
          "attributes": {
            "NORMAL": 2,
            "POSITION": 0
          },
          "indices": 1,
          "mode": 4
        }
      ]
    }
  ],
  "nodes": [
    {
      "mesh": 0,
      "name": "sparkle"
    }
  ],
  "scene": 0,
  "scenes": [
    {
      "nodes": [
        0
      ]
    }
  ]
}
