{
  "accessors": [
    {
      "bufferView": 0,
      "componentType": 5126,
      "count": 19554,
      "max": [
        51.14937973022461,
        -34.899253845214844,
        85.37437438964844
      ],
      "min": [
        -50.33769607543945,
        -72.99577331542969,
        59.97555923461914
      ],
      "name": "positions",
      "type": "VEC3"
    },
    {
      "bufferView": 1,
      "componentType": 5125,
      "count": 117300,
      "name": "pos_index",
      "type": "SCALAR"
    },
    {
      "bufferView": 2,
      "componentType": 5126,
      "count": 19554,
      "name": "normals",
      "type": "VEC3"
    },
    {
      "bufferView": 3,
      "componentType": 5126,
      "count": 19551,
      "max": [
        99.42306518554688,
        127.05701446533203,
        79.21215057373047
      ],
      "min": [
        -98.60728454589844,
        -127.76155090332031,
        -86.18684387207031
      ],
      "name": "positions",
      "type": "VEC3"
    },
    {
      "bufferView": 4,
      "componentType": 5125,
      "count": 117294,
      "name": "pos_index",
      "type": "SCALAR"
    },
    {
      "bufferView": 5,
      "componentType": 5126,
      "count": 19551,
      "name": "normals",
      "type": "VEC3"
    }
  ],
  "asset": {
    "version": "2.0"
  },
  "bufferViews": [
    {
      "buffer": 0,
      "byteLength": 234648,
      "name": "positions",
      "target": 34962
    },
    {
      "buffer": 1,
      "byteLength": 469200,
      "name": "pos_index",
      "target": 34963
    },
    {
      "buffer": 2,
      "byteLength": 234648,
      "name": "normals",
      "target": 34962
    },
    {
      "buffer": 3,
      "byteLength": 234612,
      "name": "positions",
      "target": 34962
    },
    {
      "buffer": 4,
      "byteLength": 469176,
      "name": "pos_index",
      "target": 34963
    },
    {
      "buffer": 5,
      "byteLength": 234612,
      "name": "normals",
      "target": 34962
    }
  ],
  "buffers": [
    {
      "byteLength": 234648,
      "name": "positions",
      "uri": "data:application/octet-stream;base64,"
    },
    {
      "byteLength": 469200,
      "name": "pos_index",
      "uri": "data:application/octet-stream;base64,"
    },
    {
      "byteLength": 234648,
      "name": "normals",
      "uri": "data:application/octet-stream;base64,"
    },
    {
      "byteLength": 234612,
      "name": "positions",
      "uri": "data:application/octet-stream;base64,"
    },
    {
      "byteLength": 469176,
      "name": "pos_index",
      "uri": "data:application/octet-stream;base64,"
    },
    {
      "byteLength": 234612,
      "name": "normals",
      "uri": "data:application/octet-stream;base64,"
    }
  ],
  "extensionsUsed": [
    "KHR_materials_transmission"
  ],
  "meshes": [
    {
      "name": "Area (2)",
      "primitives": [
        {
          "attributes": {
            "NORMAL": 2,
            "POSITION": 0
          },
          "indices": 1,
          "mode": 4
        }
      ]
    },
    {
      "name": "Area (7)",
      "primitives": [
        {
          "attributes": {
            "NORMAL": 5,
            "POSITION": 3
          },
          "indices": 4,
          "mode": 4
        }
      ]
    }
  ],
  "nodes": [
    {
      "mesh": 0,
      "name": "Area (2)"
    },
    {
      "mesh": 1,
      "name": "Area (7)"
    }
  ],
  "scene": 0,
  "scenes": [
    {
      "nodes": [
        0,
        1
      ]
    }
  ]
}
