{
  "accessors": [
    {
      "bufferView": 0,
      "componentType": 5126,
      "count": 13201,
      "max": [
        99.35664367675781,
        99.01439666748047,
        79.28801727294922
      ],
      "min": [
        -98.69522857666016,
        -99.66132354736328,
        -86.11396789550781
      ],
      "name": "positions",
      "type": "VEC3"
    },
    {
      "bufferView": 1,
      "componentType": 5125,
      "count": 79194,
      "name": "pos_index",
      "type": "SCALAR"
    },
    {
      "bufferView": 2,
      "componentType": 5126,
      "count": 13201,
      "name": "normals",
      "type": "VEC3"
    },
    {
      "bufferView": 3,
      "componentType": 5126,
      "count": 13203,
      "max": [
        51.1296501159668,
        -6.792994022369385,
        85.4495620727539
      ],
      "min": [
        -50.468467712402344,
        -44.899864196777344,
        60.05045700073242
      ],
      "name": "positions",
      "type": "VEC3"
    },
    {
      "bufferView": 4,
      "componentType": 5125,
      "count": 79194,
      "name": "pos_index",
      "type": "SCALAR"
    },
    {
      "bufferView": 5,
      "componentType": 5126,
      "count": 13203,
      "name": "normals",
      "type": "VEC3"
    }
  ],
  "asset": {
    "version": "2.0"
  },
  "bufferViews": [
    {
      "buffer": 0,
      "byteLength": 158412,
      "name": "positions",
      "target": 34962
    },
    {
      "buffer": 1,
      "byteLength": 316776,
      "name": "pos_index",
      "target": 34963
    },
    {
      "buffer": 2,
      "byteLength": 158412,
      "name": "normals",
      "target": 34962
    },
    {
      "buffer": 3,
      "byteLength": 158436,
      "name": "positions",
      "target": 34962
    },
    {
      "buffer": 4,
      "byteLength": 316776,
      "name": "pos_index",
      "target": 34963
    },
    {
      "buffer": 5,
      "byteLength": 158436,
      "name": "normals",
      "target": 34962
    }
  ],
  "buffers": [
    {
      "byteLength": 158412,
      "name": "positions",
      "uri": "data:application/octet-stream;base64,"
    },
    {
      "byteLength": 316776,
      "name": "pos_index",
      "uri": "data:application/octet-stream;base64,"
    },
    {
      "byteLength": 158412,
      "name": "normals",
      "uri": "data:application/octet-stream;base64,"
    },
    {
      "byteLength": 158436,
      "name": "positions",
      "uri": "data:application/octet-stream;base64,"
    },
    {
      "byteLength": 316776,
      "name": "pos_index",
      "uri": "data:application/octet-stream;base64,"
    },
    {
      "byteLength": 158436,
      "name": "normals",
      "uri": "data:application/octet-stream;base64,"
    }
  ],
  "extensionsUsed": [
    "KHR_materials_transmission"
  ],
  "meshes": [
    {
      "name": "bear-body",
      "primitives": [
        {
          "attributes": {
            "NORMAL": 2,
            "POSITION": 0
          },
          "indices": 1,
          "mode": 4
        }
      ]
    },
    {
      "name": "bear-eyes",
      "primitives": [
        {
          "attributes": {
            "NORMAL": 5,
            "POSITION": 3
          },
          "indices": 4,
          "mode": 4
        }
      ]
    }
  ],
  "nodes": [
    {
      "mesh": 0,
      "name": "bear-body"
    },
    {
      "mesh": 1,
      "name": "bear-eyes"
    }
  ],
  "scene": 0,
  "scenes": [
    {
      "nodes": [
        0,
        1
      ]
    }
  ]
}
